name analog
datacolumns 19
datarows 60
range 0.0 0.029500000000000002
endheader
time	ground_force_vx	ground_force_vy	ground_force_vz	ground_force_px	ground_force_py	ground_force_pz	l_ground_force_vx	l_ground_force_vy	l_ground_force_vz	l_ground_force_px	l_ground_force_py	l_ground_force_pz	ground_torque_x	ground_torque_y	ground_torque_z	l_ground_torque_x	l_ground_torque_y	l_ground_torque_z
0.0	-0.0	-0.0	-0.0	-0.0	-0.0	-0.0	6.533658981323242	-80.58154296875	-724.5156860351562	-0.0	-0.0	-0.0	-0.0	-0.0	-0.0	198114.25	-50113.96484375	6378.5263671875
0.0005	-0.0	-0.0	-0.0	-0.0	-0.0	-0.0	6.261959075927734	-80.7420425415039	-724.310546875	-0.0	-0.0	-0.0	-0.0	-0.0	-0.0	198101.03125	-50043.93359375	6360.796875
0.001	-0.0	-0.0	-0.0	-0.0	-0.0	-0.0	6.311675548553467	-80.52307891845703	-724.2890625	-0.0	-0.0	-0.0	-0.0	-0.0	-0.0	198292.625	-49951.8515625	6319.51708984375
0.0015	-0.0	-0.0	-0.0	-0.0	-0.0	-0.0	5.851189613342285	-80.744873046875	-723.6139526367188	-0.0	-0.0	-0.0	-0.0	-0.0	-0.0	198051.4375	-49928.50390625	6200.1728515625
0.002	-0.0	-0.0	-0.0	-0.0	-0.0	-0.0	5.665058612823486	-80.65653991699219	-723.589111328125	-0.0	-0.0	-0.0	-0.0	-0.0	-0.0	198032.875	-49846.76171875	6158.01171875
0.0025	-0.0	-0.0	-0.0	-0.0	-0.0	-0.0	5.820171356201172	-80.59661865234375	-722.556884765625	-0.0	-0.0	-0.0	-0.0	-0.0	-0.0	197936.21875	-49566.28515625	6169.55712890625
0.003	-0.0	-0.0	-0.0	-0.0	-0.0	-0.0	5.183426380157471	-80.80187225341797	-722.54345703125	-0.0	-0.0	-0.0	-0.0	-0.0	-0.0	197789.875	-49649.26171875	6064.291015625
0.0035	-0.0	-0.0	-0.0	-0.0	-0.0	-0.0	5.33841609954834	-80.57772064208984	-722.2695922851562	-0.0	-0.0	-0.0	-0.0	-0.0	-0.0	197703.953125	-49564.0	5924.587890625
0.004	-0.0	-0.0	-0.0	-0.0	-0.0	-0.0	4.968162536621094	-80.44210815429688	-722.2435913085938	-0.0	-0.0	-0.0	-0.0	-0.0	-0.0	197764.59375	-49511.5625	5850.2041015625
0.0045000000000000005	-0.0	-0.0	-0.0	-0.0	-0.0	-0.0	4.891700744628906	-80.19326782226562	-721.6589965820312	-0.0	-0.0	-0.0	-0.0	-0.0	-0.0	197875.453125	-49648.75390625	5734.7451171875
0.005	-0.0	-0.0	-0.0	-0.0	-0.0	-0.0	4.576189041137695	-79.80474853515625	-722.09375	-0.0	-0.0	-0.0	-0.0	-0.0	-0.0	198007.28125	-49649.828125	5780.2548828125
0.0055	-0.0	-0.0	-0.0	-0.0	-0.0	-0.0	4.556923389434815	-80.29740905761719	-722.9336547851562	-0.0	-0.0	-0.0	-0.0	-0.0	-0.0	198150.46875	-49530.59765625	5652.615234375
0.006	-0.0	-0.0	-0.0	-0.0	-0.0	-0.0	4.53739595413208	-80.05641174316406	-722.814697265625	-0.0	-0.0	-0.0	-0.0	-0.0	-0.0	198087.46875	-49427.0	5521.630859375
0.006500000000000001	-0.0	-0.0	-0.0	-0.0	-0.0	-0.0	4.309126853942871	-80.24327087402344	-722.1505126953125	-0.0	-0.0	-0.0	-0.0	-0.0	-0.0	197963.40625	-49317.00390625	5494.51953125
0.007	-0.0	-0.0	-0.0	-0.0	-0.0	-0.0	3.965367555618286	-80.24613952636719	-721.393798828125	-0.0	-0.0	-0.0	-0.0	-0.0	-0.0	197722.609375	-49342.5078125	5419.857421875
0.0075	-0.0	-0.0	-0.0	-0.0	-0.0	-0.0	4.184359550476074	-80.05198669433594	-721.0475463867188	-0.0	-0.0	-0.0	-0.0	-0.0	-0.0	197839.3125	-49261.296875	5452.712890625
0.008	-0.0	-0.0	-0.0	-0.0	-0.0	-0.0	4.02861213684082	-80.18460083007812	-720.102294921875	-0.0	-0.0	-0.0	-0.0	-0.0	-0.0	197717.59375	-49239.15234375	5366.55322265625
0.0085	-0.0	-0.0	-0.0	-3.5665359497070312	1.7584424018859863	-21.939023971557617	3.720177173614502	-80.68244934082031	-720.7294311523438	-0.0	-0.0	-0.0	-0.0	-0.0	-0.0	197692.40625	-49327.6484375	5363.30712890625
0.009000000000000001	-0.0	-0.0	-0.0	-2.5916028022766118	3.8555052280426025	-40.75179290771485	3.525895833969116	-80.44493865966797	-719.5377807617188	-0.0	-0.0	-0.0	-0.0	-0.0	-0.0	197614.828125	-49149.00390625	5362.5693359375
0.0095	-0.0	-0.0	-0.0	-0.9046188592910768	5.681918621063232	-50.85504913330078	3.43476939201355	-80.78669738769531	-717.9371337890625	-0.0	-0.0	-0.0	-0.0	-0.0	-0.0	196894.9375	-48976.68359375	5367.3193359375
0.01	-0.0	-0.0	-0.0	-0.8141791224479675	6.668389320373535	-61.71910858154297	3.426389217376709	-81.02963256835938	-714.5933837890625	-0.0	-0.0	-0.0	-0.0	-0.0	-0.0	196197.171875	-48786.39453125	5339.0048828125
0.0105	-0.0	-0.0	-0.0	0.2466753870248794	7.520435810089111	-72.0042495727539	3.3513193130493164	-81.03665924072266	-710.266357421875	-0.0	-0.0	-0.0	-0.0	-0.0	-0.0	195055.890625	-48444.54296875	5310.7568359375
0.011	-0.0	-0.0	-0.0	2.045811653137207	8.935063362121582	-84.80681610107422	3.2216949462890625	-81.37226104736328	-704.7412719726562	-0.0	-0.0	-0.0	-0.0	-0.0	-0.0	193603.703125	-47958.43359375	5282.08740234375
0.0115	-0.0	-0.0	-0.0	3.530393362045288	10.45493221282959	-95.29619598388672	3.0819430351257324	-81.13223266601562	-697.9783325195312	-0.0	-0.0	-0.0	-0.0	-0.0	-0.0	191500.9375	-47161.58203125	5090.89599609375
0.012	-0.0	-0.0	-0.0	3.819812059402466	11.512167930603027	-107.38804626464844	2.8920490741729736	-80.59723663330078	-689.8961181640625	-0.0	-0.0	-0.0	-0.0	-0.0	-0.0	189386.265625	-46279.5078125	5072.48974609375
0.0125	-0.0	-0.0	-0.0	3.258845806121826	12.775891304016112	-118.43148803710938	2.6620125770568848	-79.77582550048828	-681.8771362304688	-0.0	-0.0	-0.0	-0.0	-0.0	-0.0	187053.828125	-45555.125	4991.8271484375
0.013000000000000001	-0.0	-0.0	-0.0	1.1491929292678833	14.064373970031738	-128.01809692382812	2.5046167373657227	-78.69462585449219	-673.1961669921875	-0.0	-0.0	-0.0	-0.0	-0.0	-0.0	184645.578125	-44799.67578125	4873.6494140625
0.0135	-0.0	-0.0	-0.0	0.560807466506958	15.096393585205078	-136.4519805908203	2.432678461074829	-77.88236999511719	-663.327392578125	-0.0	-0.0	-0.0	-0.0	-0.0	-0.0	182121.625	-44027.58984375	4732.21875
0.014	-0.0	-0.0	-0.0	0.0789184421300888	15.667223930358888	-146.4169464111328	2.208281993865967	-76.50609588623047	-654.038330078125	-0.0	-0.0	-0.0	-0.0	-0.0	-0.0	179431.71875	-43311.85546875	4520.52490234375
0.0145	-0.0	-0.0	-0.0	0.1710285097360611	16.35038948059082	-155.04957580566406	1.791268825531006	-74.95317077636719	-643.58251953125	-0.0	-0.0	-0.0	-0.0	-0.0	-0.0	176824.4375	-42388.9921875	4375.79931640625
0.015	-0.0	-0.0	-0.0	0.2970780432224273	17.212265014648438	-162.622802734375	1.3207398653030396	-73.38544464111328	-633.51611328125	-0.0	-0.0	-0.0	-0.0	-0.0	-0.0	173901.09375	-41443.203125	4145.1201171875
0.0155	-0.0	-0.0	-0.0	0.225384920835495	17.672605514526367	-167.99588012695312	1.46379816532135	-71.77372741699219	-622.1688232421875	-0.0	-0.0	-0.0	-0.0	-0.0	-0.0	170881.09375	-40659.42578125	3923.215087890625
0.016	-0.0	-0.0	-0.0	0.8276054859161377	18.365707397460938	-173.5290069580078	1.1286675930023191	-69.96563720703125	-612.3548583984375	-0.0	-0.0	-0.0	-0.0	-0.0	-0.0	168063.796875	-39455.87890625	3597.2392578125
0.0165	-0.0	-0.0	-0.0	0.8279052972793579	18.635269165039062	-180.9153594970703	0.5793918371200562	-67.83340454101562	-601.7862548828125	-0.0	-0.0	-0.0	-0.0	-0.0	-0.0	164931.25	-38428.69921875	3194.4296875
0.017	-0.0	-0.0	-0.0	0.9925100803375244	19.33176040649414	-186.86997985839844	0.0699803531169891	-65.97630310058594	-590.2310791015625	-0.0	-0.0	-0.0	-0.0	-0.0	-0.0	161923.609375	-37452.9375	3157.343994140625
0.0175	-0.0	-0.0	-0.0	0.984683632850647	19.74472427368164	-192.77633666992188	-0.245212584733963	-63.99723052978516	-578.3655395507812	-0.0	-0.0	-0.0	-0.0	-0.0	-0.0	159294.609375	-36595.25	2662.318603515625
0.018000000000000002	-0.0	-0.0	-0.0	1.0797219276428225	20.191303253173828	-198.8400421142578	-0.8091292381286621	-62.2424430847168	-568.3467407226562	-0.0	-0.0	-0.0	-0.0	-0.0	-0.0	156214.75	-35587.06640625	2393.04248046875
0.0185	-0.0	-0.0	-0.0	1.197337031364441	20.259334564208984	-205.66302490234372	-1.1297767162322998	-60.52662658691406	-557.9215087890625	-0.0	-0.0	-0.0	-0.0	-0.0	-0.0	153273.171875	-34611.796875	2051.813232421875
0.019	-0.0	-0.0	-0.0	0.8429253697395325	21.08390998840332	-210.77598571777344	-1.667564034461975	-58.85300827026367	-547.0147094726562	-0.0	-0.0	-0.0	-0.0	-0.0	-0.0	150673.203125	-33803.62109375	1737.0433349609375
0.0195	-0.0	-0.0	-0.0	0.9535762667655944	21.608753204345703	-218.75537109375	-2.0847361087799072	-56.803009033203125	-536.0050659179688	-0.0	-0.0	-0.0	-0.0	-0.0	-0.0	147800.25	-32801.43359375	1376.0924072265625
0.02	-0.0	-0.0	-0.0	1.144395112991333	22.14673614501953	-224.52517700195312	-2.628265142440796	-55.17676544189453	-526.0237426757812	-0.0	-0.0	-0.0	-0.0	-0.0	-0.0	145124.453125	-31730.443359375	1024.6922607421875
0.0205	-0.0	-0.0	-0.0	1.5055729150772097	22.59803771972656	-231.4073638916016	-2.99183201789856	-53.45457077026367	-516.3980712890625	-0.0	-0.0	-0.0	-0.0	-0.0	-0.0	142322.1875	-30847.70703125	728.7571411132812
0.021	-0.0	-0.0	-0.0	1.588531732559204	23.44991683959961	-237.7584228515625	-3.265392780303955	-51.668190002441406	-506.2033081054688	-0.0	-0.0	-0.0	-0.0	-0.0	-0.0	139385.265625	-29873.5703125	310.1438293457031
0.021500000000000002	-0.0	-0.0	-0.0	2.15956449508667	24.06525611877441	-245.3173370361328	-3.7861595153808594	-50.18012237548828	-497.3240966796875	-0.0	-0.0	-0.0	-0.0	-0.0	-0.0	136852.765625	-29176.84765625	164.51602172851562
0.022	-0.0	-0.0	-0.0	2.380892276763916	25.041427612304688	-252.1566619873047	-4.116824626922607	-48.63700866699219	-487.1441040039063	-0.0	-0.0	-0.0	-0.0	-0.0	-0.0	134583.9375	-28428.404296875	-117.86128997802734
0.0225	-0.0	-0.0	-0.0	2.5708208084106445	25.689796447753903	-256.6830139160156	-4.272215366363525	-47.18387222290039	-478.9642333984375	-0.0	-0.0	-0.0	-0.0	-0.0	-0.0	132253.25	-27578.44921875	-367.6580200195313
0.023	-0.0	-0.0	-0.0	2.9439468383789062	26.957874298095703	-267.0040283203125	-4.475905418395996	-45.83101272583008	-470.9113159179688	-0.0	-0.0	-0.0	-0.0	-0.0	-0.0	129736.34375	-27029.92578125	-502.947021484375
0.0235	-0.0	-0.0	-0.0	2.678213119506836	27.599742889404297	-273.01629638671875	-4.756446361541748	-44.40567398071289	-463.515380859375	-0.0	-0.0	-0.0	-0.0	-0.0	-0.0	127632.765625	-26324.2734375	-644.26806640625
0.024	-0.0	-0.0	-0.0	2.5385117530822754	28.17709732055664	-280.18487548828125	-4.967708110809326	-43.19319152832031	-454.849609375	-0.0	-0.0	-0.0	-0.0	-0.0	-0.0	125672.3203125	-25681.60546875	-846.380615234375
0.0245	-0.0	-0.0	-0.0	2.369012355804444	29.161636352539062	-287.97381591796875	-5.009611129760742	-42.12427520751953	-446.99114990234375	-0.0	-0.0	-0.0	-0.0	-0.0	-0.0	123684.0	-25262.6875	-1046.59765625
0.025	-0.0	-0.0	-0.0	2.70953369140625	29.7211971282959	-297.0243530273437	-5.315225601196289	-40.62059020996094	-440.4109497070313	-0.0	-0.0	-0.0	-0.0	-0.0	-0.0	121775.296875	-24740.45703125	-1137.666748046875
0.025500000000000002	-0.0	-0.0	-0.0	3.1651182174682617	30.314502716064453	-304.9018249511719	-5.3254828453063965	-39.83868408203125	-433.6247253417969	-0.0	-0.0	-0.0	-0.0	-0.0	-0.0	119852.7109375	-24092.513671875	-1215.2840576171875
0.026000000000000002	-0.0	-0.0	-0.0	3.252473831176758	31.275463104248047	-311.710693359375	-5.254302024841309	-39.15983963012695	-427.0640563964844	-0.0	-0.0	-0.0	-0.0	-0.0	-0.0	118201.53125	-23721.33203125	-1234.2938232421875
0.0265	-0.0	-0.0	-0.0	3.459428548812866	32.25028991699219	-320.0533142089844	-5.244166374206543	-38.552371978759766	-421.3316040039063	-0.0	-0.0	-0.0	-0.0	-0.0	-0.0	116482.859375	-23525.6953125	-1313.5001220703125
0.027	-0.0	-0.0	-0.0	3.73243260383606	32.944480895996094	-326.0421447753906	-5.240972995758057	-37.45540618896485	-415.6511535644531	-0.0	-0.0	-0.0	-0.0	-0.0	-0.0	114799.1796875	-22974.806640625	-1323.1649169921875
0.0275	-0.0	-0.0	-0.0	3.735170602798462	33.58308792114258	-335.460693359375	-5.140043258666992	-36.991310119628906	-408.5413818359375	-0.0	-0.0	-0.0	-0.0	-0.0	-0.0	113239.703125	-22665.15625	-1479.6827392578125
0.028	-0.0	-0.0	-0.0	3.784449815750122	34.71275329589844	-342.97857666015625	-5.169086933135986	-36.37148666381836	-402.89459228515625	-0.0	-0.0	-0.0	-0.0	-0.0	-0.0	111629.8203125	-22288.919921875	-1604.476806640625
0.0285	-0.0	-0.0	-0.0	3.83950138092041	35.6367073059082	-349.37664794921875	-5.152140140533447	-35.81801223754883	-396.7843933105469	-0.0	-0.0	-0.0	-0.0	-0.0	-0.0	110225.1015625	-21863.423828125	-1616.3809814453125
0.029	-0.0	-0.0	-0.0	3.8772945404052734	36.632598876953125	-358.0978698730469	-5.493508338928223	-35.4987907409668	-392.9314270019531	-0.0	-0.0	-0.0	-0.0	-0.0	-0.0	108768.390625	-21629.67578125	-1685.6512451171875
0.029500000000000002	-0.0	-0.0	-0.0	4.228456020355225	37.370697021484375	-363.366455078125	-5.892192363739014	-34.62322235107422	-388.06292724609375	-0.0	-0.0	-0.0	-0.0	-0.0	-0.0	107429.546875	-20990.474609375	-1921.82763671875
